<svg xmlns="http://www.w3.org/2000/svg"  viewBox="0 0 80 80" width="80px" height="80px"><path d="M 18 10 C 13.593562 10 10 13.593562 10 18 L 10 62 C 10 66.406438 13.593562 70 18 70 L 62 70 C 66.406438 70 70 66.406438 70 62 L 70 18 C 70 13.593562 66.406438 10 62 10 L 18 10 z M 18 12 L 62 12 C 65.325562 12 68 14.674438 68 18 L 68 62 C 68 65.325562 65.325562 68 62 68 L 18 68 C 14.674438 68 12 65.325562 12 62 L 12 18 C 12 14.674438 14.674438 12 18 12 z M 18 15 C 17.448 15 17 15.448 17 16 C 17 16.552 17.448 17 18 17 C 18.552 17 19 16.552 19 16 C 19 15.448 18.552 15 18 15 z M 22 15 C 21.448 15 21 15.448 21 16 C 21 16.552 21.448 17 22 17 C 22.552 17 23 16.552 23 16 C 23 15.448 22.552 15 22 15 z M 26 15 C 25.448 15 25 15.448 25 16 C 25 16.552 25.448 17 26 17 C 26.552 17 27 16.552 27 16 C 27 15.448 26.552 15 26 15 z M 30 15 C 29.448 15 29 15.448 29 16 C 29 16.552 29.448 17 30 17 C 30.552 17 31 16.552 31 16 C 31 15.448 30.552 15 30 15 z M 34 15 C 33.448 15 33 15.448 33 16 C 33 16.552 33.448 17 34 17 C 34.552 17 35 16.552 35 16 C 35 15.448 34.552 15 34 15 z M 38 15 C 37.448 15 37 15.448 37 16 C 37 16.552 37.448 17 38 17 C 38.552 17 39 16.552 39 16 C 39 15.448 38.552 15 38 15 z M 42 15 C 41.448 15 41 15.448 41 16 C 41 16.552 41.448 17 42 17 C 42.552 17 43 16.552 43 16 C 43 15.448 42.552 15 42 15 z M 46 15 C 45.448 15 45 15.448 45 16 C 45 16.552 45.448 17 46 17 C 46.552 17 47 16.552 47 16 C 47 15.448 46.552 15 46 15 z M 50 15 C 49.448 15 49 15.448 49 16 C 49 16.552 49.448 17 50 17 C 50.552 17 51 16.552 51 16 C 51 15.448 50.552 15 50 15 z M 54 15 C 53.448 15 53 15.448 53 16 C 53 16.552 53.448 17 54 17 C 54.552 17 55 16.552 55 16 C 55 15.448 54.552 15 54 15 z M 58 15 C 57.448 15 57 15.448 57 16 C 57 16.552 57.448 17 58 17 C 58.552 17 59 16.552 59 16 C 59 15.448 58.552 15 58 15 z M 62 15 C 61.448 15 61 15.448 61 16 C 61 16.552 61.448 17 62 17 C 62.552 17 63 16.552 63 16 C 63 15.448 62.552 15 62 15 z M 25 20 C 23.35503 20 22 21.35503 22 23 L 22 48 C 22 49.64497 23.35503 51 25 51 L 44.5 51 C 53.04846 51 60 44.04846 60 35.5 C 60 26.95154 53.04846 20 44.5 20 L 25 20 z M 25 22 L 44.5 22 C 51.96754 22 58 28.03246 58 35.5 C 58 42.96754 51.96754 49 44.5 49 L 25 49 C 24.43497 49 24 48.56503 24 48 L 24 23 C 24 22.43497 24.43497 22 25 22 z M 32 26 A 1.0001 1.0001 0 0 0 31 27 L 31 44 A 1.0001 1.0001 0 0 0 32 45 L 41.5 45 C 46.734548 45 51 40.734548 51 35.5 C 51 30.265452 46.734548 26 41.5 26 L 32 26 z M 33 28 L 41.5 28 C 45.653452 28 49 31.346548 49 35.5 C 49 39.653452 45.653452 43 41.5 43 L 33 43 L 33 28 z M 25.943359 53.154297 C 25.479359 53.154297 25.063406 53.233578 24.691406 53.392578 C 24.320406 53.552578 24.002234 53.779219 23.740234 54.074219 C 23.476234 54.371219 23.275766 54.726531 23.134766 55.144531 C 22.992766 55.562531 22.921875 56.033641 22.921875 56.556641 C 22.921875 57.083641 22.992766 57.559422 23.134766 57.982422 C 23.275766 58.407422 23.474328 58.768406 23.736328 59.066406 C 23.996328 59.363406 24.314547 59.592859 24.685547 59.755859 C 25.056547 59.918859 25.476359 60 25.943359 60 C 26.283359 60 26.601531 59.955188 26.894531 59.867188 C 27.188531 59.779188 27.448828 59.651422 27.673828 59.482422 C 27.898828 59.313422 28.086375 59.105422 28.234375 58.857422 C 28.382375 58.610422 28.482297 58.329578 28.529297 58.017578 L 28.029297 58.017578 C 27.940297 58.507578 27.709797 58.879766 27.341797 59.134766 C 26.971797 59.391766 26.501641 59.517578 25.931641 59.517578 C 25.553641 59.517578 25.210344 59.454172 24.902344 59.326172 C 24.594344 59.196172 24.331328 59.007766 24.111328 58.759766 C 23.892328 58.509766 23.724469 58.199031 23.605469 57.832031 C 23.486469 57.463031 23.427734 57.038641 23.427734 56.556641 C 23.427734 56.074641 23.486469 55.651109 23.605469 55.287109 C 23.724469 54.923109 23.892328 54.620906 24.111328 54.378906 C 24.331328 54.134906 24.597203 53.949219 24.908203 53.824219 C 25.220203 53.699219 25.566266 53.638672 25.947266 53.638672 C 26.217266 53.638672 26.469078 53.674094 26.705078 53.746094 C 26.941078 53.818094 27.149078 53.917922 27.330078 54.044922 C 27.511078 54.171922 27.661203 54.322187 27.783203 54.492188 C 27.904203 54.662188 27.985297 54.845969 28.029297 55.042969 L 28.529297 55.042969 C 28.469297 54.766969 28.359125 54.510297 28.203125 54.279297 C 28.046125 54.048297 27.855 53.848641 27.625 53.681641 C 27.396 53.515641 27.138562 53.386969 26.851562 53.292969 C 26.564562 53.200969 26.260359 53.154297 25.943359 53.154297 z M 56.136719 53.984375 L 56.136719 55.208984 L 55.537109 55.208984 L 55.537109 55.691406 L 56.136719 55.691406 L 56.136719 58.548828 C 56.136719 58.782828 56.146016 58.985156 56.166016 59.160156 C 56.187016 59.335156 56.230875 59.481656 56.296875 59.597656 C 56.363875 59.714656 56.459938 59.801375 56.585938 59.859375 C 56.713937 59.918375 56.880844 59.945312 57.089844 59.945312 C 57.158844 59.945312 57.225922 59.944406 57.294922 59.941406 C 57.363271 59.936453 57.429717 59.929762 57.498047 59.921875 L 57.498047 59.458984 C 57.458047 59.461984 57.421672 59.464844 57.388672 59.464844 L 57.275391 59.464844 C 57.170391 59.464844 57.077141 59.4565 56.994141 59.4375 C 56.911141 59.4205 56.841156 59.378406 56.785156 59.316406 C 56.729156 59.254406 56.688156 59.166734 56.660156 59.052734 C 56.632156 58.938734 56.617188 58.783844 56.617188 58.589844 L 56.617188 55.691406 L 57.382812 55.691406 L 57.382812 55.208984 L 56.617188 55.208984 L 56.617188 53.984375 L 56.136719 53.984375 z M 31.857422 55.085938 C 31.543422 55.085937 31.258 55.140906 31 55.253906 C 30.743 55.362906 30.52475 55.523422 30.34375 55.732422 C 30.16275 55.941422 30.023781 56.198953 29.925781 56.501953 C 29.825781 56.805953 29.777344 57.148156 29.777344 57.535156 C 29.777344 57.928156 29.826734 58.279938 29.927734 58.585938 C 30.027734 58.889938 30.168609 59.148375 30.349609 59.359375 C 30.530609 59.569375 30.747906 59.728891 31.003906 59.837891 C 31.257906 59.944891 31.543422 60 31.857422 60 C 32.169422 60 32.456844 59.944031 32.714844 59.832031 C 32.971844 59.722031 33.190094 59.562562 33.371094 59.351562 C 33.552094 59.141562 33.691063 58.880172 33.789062 58.576172 C 33.887063 58.270172 33.9375 57.922203 33.9375 57.533203 C 33.9375 57.150203 33.889969 56.808859 33.792969 56.505859 C 33.697969 56.202859 33.557953 55.945375 33.376953 55.734375 C 33.195953 55.522375 32.978703 55.360953 32.720703 55.251953 C 32.462703 55.140953 32.174422 55.085938 31.857422 55.085938 z M 37.470703 55.085938 C 37.358703 55.085938 37.235422 55.093422 37.107422 55.107422 C 36.977422 55.121422 36.843219 55.154891 36.699219 55.212891 C 36.557219 55.269891 36.410766 55.351937 36.259766 55.460938 C 36.110416 55.567474 35.956096 55.713581 35.800781 55.898438 L 35.800781 55.207031 L 35.318359 55.207031 L 35.318359 59.880859 L 35.800781 59.880859 L 35.800781 56.466797 C 36.048781 56.180797 36.300641 55.958734 36.556641 55.802734 C 36.811641 55.646734 37.072891 55.566406 37.337891 55.566406 C 37.537891 55.566406 37.708656 55.594531 37.847656 55.644531 C 37.986656 55.694531 38.097594 55.770094 38.183594 55.871094 C 38.270594 55.974094 38.334094 56.106625 38.371094 56.265625 C 38.410094 56.423625 38.429688 56.611125 38.429688 56.828125 L 38.429688 59.880859 L 38.910156 59.880859 L 38.910156 56.787109 C 38.910156 55.652109 38.430703 55.085938 37.470703 55.085938 z M 42.685547 55.085938 C 42.573547 55.085938 42.452219 55.093422 42.324219 55.107422 C 42.194219 55.121422 42.060016 55.154891 41.916016 55.212891 C 41.774016 55.269891 41.627563 55.351937 41.476562 55.460938 C 41.326563 55.567937 41.171625 55.714391 41.015625 55.900391 L 41.015625 55.207031 L 40.533203 55.207031 L 40.533203 59.880859 L 41.015625 59.880859 L 41.015625 56.466797 C 41.263625 56.180797 41.517437 55.958734 41.773438 55.802734 C 42.028437 55.646734 42.289687 55.566406 42.554688 55.566406 C 42.754688 55.566406 42.9235 55.594531 43.0625 55.644531 C 43.2015 55.694531 43.314391 55.770094 43.400391 55.871094 C 43.487391 55.974094 43.550891 56.106625 43.587891 56.265625 C 43.626891 56.423625 43.644531 56.611125 43.644531 56.828125 L 43.644531 59.880859 L 44.126953 59.880859 L 44.126953 56.787109 C 44.126953 55.652109 43.645547 55.085938 42.685547 55.085938 z M 47.59375 55.085938 C 47.28275 55.085937 47.001047 55.143859 46.748047 55.255859 C 46.495047 55.367859 46.275797 55.527281 46.091797 55.738281 C 45.905797 55.950281 45.762109 56.207719 45.662109 56.511719 C 45.561109 56.814719 45.511719 57.157156 45.511719 57.535156 C 45.511719 57.924156 45.562969 58.272125 45.667969 58.578125 C 45.771969 58.882125 45.921328 59.140563 46.111328 59.351562 C 46.303328 59.561563 46.531875 59.722984 46.796875 59.833984 C 47.061875 59.944984 47.356641 60 47.681641 60 C 47.918641 60 48.140656 59.969203 48.347656 59.908203 C 48.557656 59.848203 48.744203 59.759625 48.908203 59.640625 C 49.074203 59.523625 49.214172 59.377078 49.326172 59.205078 C 49.439172 59.035078 49.5175 58.839141 49.5625 58.619141 L 49.083984 58.619141 C 49.068984 58.763141 49.016734 58.893859 48.927734 59.005859 C 48.838734 59.118859 48.730609 59.212109 48.599609 59.287109 C 48.470609 59.363109 48.323109 59.421937 48.162109 59.460938 C 48.002109 59.497938 47.840688 59.517578 47.679688 59.517578 C 47.452688 59.517578 47.239922 59.479344 47.044922 59.402344 C 46.849922 59.325344 46.677297 59.211641 46.529297 59.056641 C 46.379297 58.902641 46.259969 58.707609 46.167969 58.474609 C 46.075969 58.241609 46.015188 57.965438 45.992188 57.648438 L 49.671875 57.648438 L 49.671875 57.539062 C 49.671875 57.158062 49.624344 56.814719 49.527344 56.511719 C 49.432344 56.206719 49.292328 55.950281 49.111328 55.738281 C 48.930328 55.527281 48.713078 55.367859 48.455078 55.255859 C 48.197078 55.143859 47.91075 55.085938 47.59375 55.085938 z M 52.916016 55.085938 C 52.602016 55.085938 52.3185 55.142906 52.0625 55.253906 C 51.8085 55.362906 51.588297 55.523422 51.404297 55.732422 C 51.221297 55.941422 51.080422 56.197906 50.982422 56.503906 C 50.884422 56.809906 50.835938 57.153062 50.835938 57.539062 C 50.835938 57.934062 50.886328 58.285844 50.986328 58.589844 C 51.086328 58.895844 51.228156 59.152328 51.410156 59.361328 C 51.592156 59.570328 51.813359 59.728891 52.068359 59.837891 C 52.324359 59.944891 52.607016 60 52.916016 60 C 53.138016 60 53.345016 59.971109 53.541016 59.912109 C 53.736016 59.855109 53.907594 59.767391 54.058594 59.650391 C 54.207594 59.534391 54.3365 59.392703 54.4375 59.220703 C 54.5405 59.050703 54.614203 58.851953 54.658203 58.626953 L 54.1875 58.626953 C 54.1675 58.775953 54.119969 58.904625 54.042969 59.015625 C 53.965969 59.125625 53.871812 59.219969 53.757812 59.292969 C 53.641812 59.367969 53.511187 59.423891 53.367188 59.462891 C 53.222187 59.499891 53.070062 59.517578 52.914062 59.517578 C 52.677062 59.517578 52.460672 59.477531 52.263672 59.394531 C 52.067672 59.311531 51.898812 59.189391 51.757812 59.025391 C 51.616812 58.860391 51.508641 58.65325 51.431641 58.40625 C 51.354641 58.15725 51.316406 57.870063 51.316406 57.539062 C 51.316406 57.214063 51.354641 56.928641 51.431641 56.681641 C 51.508641 56.435641 51.616813 56.2285 51.757812 56.0625 C 51.897813 55.8985 52.066672 55.774359 52.263672 55.693359 C 52.460672 55.610359 52.677062 55.568359 52.914062 55.568359 C 53.083063 55.568359 53.241672 55.589953 53.388672 55.626953 C 53.535672 55.665953 53.665344 55.721828 53.777344 55.798828 C 53.890344 55.874828 53.982734 55.970031 54.052734 56.082031 C 54.122734 56.195031 54.1675 56.32375 54.1875 56.46875 L 54.658203 56.46875 C 54.617203 56.24675 54.546359 56.049953 54.443359 55.876953 C 54.340359 55.704953 54.214453 55.558406 54.064453 55.441406 C 53.913453 55.326406 53.740875 55.238734 53.546875 55.177734 C 53.351875 55.117734 53.141016 55.085938 52.916016 55.085938 z M 47.591797 55.566406 C 48.005797 55.566406 48.354672 55.699844 48.638672 55.964844 C 48.921672 56.230844 49.103594 56.632016 49.183594 57.166016 L 45.992188 57.166016 C 46.032187 56.896016 46.099359 56.661938 46.193359 56.460938 C 46.288359 56.259937 46.407922 56.091984 46.544922 55.958984 C 46.683922 55.825984 46.841531 55.728063 47.019531 55.664062 C 47.195531 55.600062 47.385797 55.566406 47.591797 55.566406 z M 31.857422 55.568359 C 32.093422 55.568359 32.310859 55.610359 32.505859 55.693359 C 32.700859 55.774359 32.869766 55.898547 33.009766 56.060547 C 33.149766 56.222547 33.259891 56.428781 33.337891 56.675781 C 33.415891 56.923781 33.455078 57.209156 33.455078 57.535156 C 33.455078 57.864156 33.415891 58.152391 33.337891 58.400391 C 33.259891 58.646391 33.150766 58.854484 33.009766 59.021484 C 32.868766 59.186484 32.700859 59.311531 32.505859 59.394531 C 32.310859 59.476531 32.093422 59.517578 31.857422 59.517578 C 31.615422 59.517578 31.396172 59.476531 31.201172 59.394531 C 31.007172 59.311531 30.840219 59.187484 30.699219 59.021484 C 30.559219 58.854484 30.450047 58.647391 30.373047 58.400391 C 30.296047 58.152391 30.259766 57.864156 30.259766 57.535156 C 30.259766 57.209156 30.296047 56.923781 30.373047 56.675781 C 30.449047 56.428781 30.558219 56.222547 30.699219 56.060547 C 30.840219 55.898547 31.007172 55.774359 31.201172 55.693359 C 31.396172 55.610359 31.615422 55.568359 31.857422 55.568359 z M 18 63 C 17.448 63 17 63.448 17 64 C 17 64.552 17.448 65 18 65 C 18.552 65 19 64.552 19 64 C 19 63.448 18.552 63 18 63 z M 22 63 C 21.448 63 21 63.448 21 64 C 21 64.552 21.448 65 22 65 C 22.552 65 23 64.552 23 64 C 23 63.448 22.552 63 22 63 z M 26 63 C 25.448 63 25 63.448 25 64 C 25 64.552 25.448 65 26 65 C 26.552 65 27 64.552 27 64 C 27 63.448 26.552 63 26 63 z M 30 63 C 29.448 63 29 63.448 29 64 C 29 64.552 29.448 65 30 65 C 30.552 65 31 64.552 31 64 C 31 63.448 30.552 63 30 63 z M 34 63 C 33.448 63 33 63.448 33 64 C 33 64.552 33.448 65 34 65 C 34.552 65 35 64.552 35 64 C 35 63.448 34.552 63 34 63 z M 38 63 C 37.448 63 37 63.448 37 64 C 37 64.552 37.448 65 38 65 C 38.552 65 39 64.552 39 64 C 39 63.448 38.552 63 38 63 z M 42 63 C 41.448 63 41 63.448 41 64 C 41 64.552 41.448 65 42 65 C 42.552 65 43 64.552 43 64 C 43 63.448 42.552 63 42 63 z M 46 63 C 45.448 63 45 63.448 45 64 C 45 64.552 45.448 65 46 65 C 46.552 65 47 64.552 47 64 C 47 63.448 46.552 63 46 63 z M 50 63 C 49.448 63 49 63.448 49 64 C 49 64.552 49.448 65 50 65 C 50.552 65 51 64.552 51 64 C 51 63.448 50.552 63 50 63 z M 54 63 C 53.448 63 53 63.448 53 64 C 53 64.552 53.448 65 54 65 C 54.552 65 55 64.552 55 64 C 55 63.448 54.552 63 54 63 z M 58 63 C 57.448 63 57 63.448 57 64 C 57 64.552 57.448 65 58 65 C 58.552 65 59 64.552 59 64 C 59 63.448 58.552 63 58 63 z M 62 63 C 61.448 63 61 63.448 61 64 C 61 64.552 61.448 65 62 65 C 62.552 65 63 64.552 63 64 C 63 63.448 62.552 63 62 63 z"/></svg>